<svg xmlns="http://www.w3.org/2000/svg" viewBox="0 0 100 100" fill="none">
  <!-- Outer ring -->
  <circle cx="50" cy="50" r="46" stroke="#1A1A2E" stroke-width="5"/>
  <!-- Inner ring -->
  <circle cx="50" cy="50" r="37" stroke="#1A1A2E" stroke-width="2"/>
  <!-- Cardinal tick marks -->
  <line x1="50" y1="5"  x2="50" y2="13" stroke="#1A1A2E" stroke-width="3.5" stroke-linecap="round"/>
  <line x1="87" y1="50" x2="95" y2="50" stroke="#1A1A2E" stroke-width="3.5" stroke-linecap="round"/>
  <line x1="50" y1="87" x2="50" y2="95" stroke="#1A1A2E" stroke-width="3.5" stroke-linecap="round"/>
  <line x1="5"  y1="50" x2="13" y2="50" stroke="#1A1A2E" stroke-width="3.5" stroke-linecap="round"/>
  <!-- 4-pointed star with hollow center (fillRule=evenodd) -->
  <path
    d="M 50 18 C 54 36, 64 46, 82 50 C 64 54, 54 64, 50 82 C 46 64, 36 54, 18 50 C 36 46, 46 36, 50 18 Z M 50 44 A 6 6 0 1 0 50 56 A 6 6 0 1 0 50 44 Z"
    fill="#1A1A2E" fill-rule="evenodd"
  />
</svg>
